<svg width="36" height="45" viewBox="0 0 36 45" fill="none" xmlns="http://www.w3.org/2000/svg">
  <g clip-path="url(#clip0_1_90)">
    <path
      d="M35.1023 19.0909H21.1818C19.916 19.0909 18.702 18.5881 17.807 17.693C16.9119 16.7979 16.4091 15.584 16.4091 14.3182V0.397727C16.4091 0.292243 16.3672 0.19108 16.2926 0.116492C16.218 0.0419034 16.1168 0 16.0114 0H6.86364C5.1759 0 3.55728 0.670453 2.36387 1.86387C1.17045 3.05728 0.5 4.67589 0.5 6.36364V38.1818C0.5 39.8696 1.17045 41.4882 2.36387 42.6816C3.55728 43.875 5.1759 44.5455 6.86364 44.5455H29.1364C30.8241 44.5455 32.4427 43.875 33.6361 42.6816C34.8295 41.4882 35.5 39.8696 35.5 38.1818V19.4886C35.5 19.3832 35.4581 19.282 35.3835 19.2074C35.3089 19.1328 35.2078 19.0909 35.1023 19.0909Z"
      fill="#EAF8F6" />
    <path
      d="M34.2293 15.57L19.93 1.27075C19.9022 1.24311 19.8668 1.2243 19.8284 1.2167C19.7899 1.20909 19.75 1.21303 19.7138 1.22801C19.6776 1.24299 19.6466 1.26835 19.6247 1.3009C19.6029 1.33345 19.5911 1.37174 19.5909 1.41095V14.3182C19.5909 14.7401 19.7586 15.1448 20.0569 15.4431C20.3553 15.7415 20.7599 15.9091 21.1819 15.9091H34.0891C34.1283 15.9089 34.1666 15.8972 34.1991 15.8753C34.2317 15.8535 34.2571 15.8225 34.272 15.7862C34.287 15.75 34.291 15.7101 34.2834 15.6717C34.2757 15.6332 34.2569 15.5978 34.2293 15.57Z"
      fill="#EAF8F6" />
  </g>
  <defs>
    <clipPath id="clip0_1_90">
      <rect width="35" height="44.5455" fill="white" transform="translate(0.5)" />
    </clipPath>
  </defs>
</svg>
  